<svg width="201" height="200" viewBox="0 0 201 200" fill="none" xmlns="http://www.w3.org/2000/svg">
<g clip-path="url(#clip0_2211_706)">
<rect x="0.65918" width="200" height="200" rx="48.7683" fill="white"/>
<rect x="0.659271" width="200" height="200" rx="48.7683" fill="#7D2AE7"/>
<path d="M107.11 291.246C178.966 278.076 226.541 209.148 213.37 137.291C200.2 65.4349 131.272 17.8605 59.4155 31.031C-12.4409 44.2014 -60.0153 113.129 -46.8449 184.986C-33.6744 256.842 35.2535 304.417 107.11 291.246Z" fill="url(#paint0_radial_2211_706)"/>
<path d="M123.032 230.007C194.889 216.837 242.463 147.909 229.293 76.0524C216.122 4.196 147.194 -43.3784 75.3377 -30.2079C3.48125 -17.0375 -44.0932 51.8904 -30.9227 123.747C-17.7522 195.603 51.1757 243.178 123.032 230.007Z" fill="url(#paint1_radial_2211_706)"/>
<path d="M107.11 230.007C178.966 216.837 226.541 147.909 213.37 76.0524C200.2 4.196 131.272 -43.3784 59.4155 -30.2079C-12.4409 -17.0375 -60.0153 51.8904 -46.8449 123.747C-33.6744 195.603 35.2535 243.178 107.11 230.007Z" fill="url(#paint2_radial_2211_706)"/>
<path d="M154.876 230.007C226.732 216.837 274.307 147.909 261.136 76.0524C247.966 4.196 179.038 -43.3784 107.182 -30.2079C35.3251 -17.0375 -12.2493 51.8904 0.921159 123.747C14.0916 195.603 83.0195 243.178 154.876 230.007Z" fill="url(#paint3_radial_2211_706)"/>
<path d="M117.921 223.522C189.777 210.352 237.351 141.424 224.181 69.5673C211.011 -2.2891 142.083 -49.8635 70.2261 -36.693C-1.63031 -23.5226 -49.2047 45.4053 -36.0343 117.262C-22.8638 189.118 46.0641 236.693 117.921 223.522Z" fill="url(#paint4_radial_2211_706)"/>
<path d="M174.374 108.03C174.123 108.031 173.9 108.2 173.791 108.535C172.293 112.857 170.257 115.442 168.573 115.449C167.606 115.453 167.211 114.376 167.204 112.683C167.186 108.461 169.687 99.4833 170.934 95.3854C171.082 94.9628 171.165 94.5203 171.181 94.0728C171.175 92.8823 170.522 92.2991 168.913 92.3059C167.303 92.3128 165.306 93.0096 163.515 96.1982C162.871 93.392 160.968 92.1722 158.318 92.1835C155.257 92.1965 152.308 94.1809 149.884 97.3816C147.462 100.582 144.611 101.655 142.451 101.143C143.987 97.3509 144.543 94.5116 144.534 92.4095C144.52 89.1075 142.884 87.1241 140.252 87.1353C136.242 87.1523 133.952 90.9848 133.969 95.003C133.982 98.1096 135.401 101.303 138.514 102.843C135.943 108.723 132.172 114.051 130.73 114.057C128.869 114.065 128.282 104.97 128.366 98.459C128.405 94.729 128.721 94.5323 128.717 93.3976C128.714 92.7558 128.284 92.3111 126.6 92.3183C122.666 92.335 121.453 95.6794 121.292 99.5123C121.23 100.965 121.009 102.408 120.631 103.812C119.001 109.698 115.634 114.167 113.42 114.177C112.388 114.181 112.114 113.15 112.108 111.811C112.09 107.588 114.43 102.285 114.411 97.7835C114.397 94.463 112.937 92.3764 110.193 92.388C106.975 92.4017 102.722 96.2613 98.7157 103.459C100.022 97.9562 100.539 92.6244 96.6142 92.6411C95.76 92.6579 94.9223 92.8783 94.1706 93.2839C93.6323 93.5653 93.3461 94.0687 93.3857 94.6267C93.7827 100.494 88.7494 115.518 83.9127 115.539C83.0291 115.543 82.6065 114.596 82.6 113.052C82.582 108.829 85.0646 99.8708 86.3122 95.7636C86.4644 95.3166 86.5471 94.8488 86.5574 94.3766C86.5527 93.2605 85.8619 92.6867 84.29 92.6934C82.56 92.7008 80.6933 93.3692 78.893 96.5579C78.2486 93.7516 76.3459 92.5319 73.7044 92.5431C69.3607 92.5616 64.5157 97.1771 62.4113 103.185C59.5898 111.197 53.8651 118.941 46.1172 118.974C39.0854 119.004 35.3494 113.169 35.3102 103.933C35.2534 90.5765 45.0106 79.6338 52.2748 79.6029C55.7535 79.5881 57.4185 81.7948 57.4329 85.1897C57.4504 89.3009 55.1704 91.2174 55.177 92.78C55.179 93.2543 55.5717 93.727 56.3623 93.7237C59.5247 93.7102 63.2202 89.9833 63.1987 84.9235C63.1772 79.8636 59.0595 76.1698 51.786 76.2007C39.7781 76.2517 27.7379 88.3947 27.8037 103.881C27.8561 116.205 33.9707 123.611 44.481 123.567C51.6523 123.536 57.8976 117.938 61.2556 111.403C61.6599 116.806 64.1181 119.604 67.8478 119.589C71.1683 119.574 73.8481 117.591 75.8888 114.104C76.6949 117.737 78.7953 119.514 81.5205 119.503C84.6457 119.49 87.2416 117.497 89.7095 113.812C89.6845 116.696 90.3564 119.409 92.8584 119.399C94.0397 119.394 95.4523 119.118 95.699 118.085C98.2757 107.181 104.758 98.2617 106.749 98.2533C107.334 98.2508 107.495 98.8082 107.498 99.4871C107.511 102.445 105.452 108.518 105.469 112.387C105.487 116.582 107.275 119.337 110.95 119.322C115.023 119.304 119.141 114.301 121.873 106.997C122.767 113.802 124.659 119.291 127.571 119.279C131.161 119.263 137.501 111.693 141.326 103.678C142.834 103.867 145.113 103.811 147.283 102.257C146.372 104.614 145.834 107.193 145.845 109.761C145.876 117.183 149.419 119.242 152.471 119.229C155.791 119.215 158.47 117.231 160.511 113.744C161.203 116.875 162.943 119.147 166.134 119.133C171.119 119.112 175.431 113.997 175.414 109.811C175.409 108.705 174.932 108.027 174.374 108.03ZM70.8812 115.473C68.8629 115.482 68.0636 113.448 68.0508 110.426C68.0285 105.18 71.5814 96.3844 75.3856 96.3682C77.0412 96.3612 77.6821 98.321 77.6922 100.711C77.7149 106.041 74.3412 115.459 70.8812 115.473ZM139.811 99.4987C138.605 98.0713 138.16 96.12 138.152 94.3899C138.143 92.2506 138.917 90.4429 139.857 90.4389C140.795 90.4349 141.079 91.3545 141.084 92.6381C141.093 94.7774 140.344 97.9244 139.811 99.4987ZM155.495 115.114C153.485 115.122 152.684 112.792 152.673 110.066C152.651 104.997 156.204 96.0247 160.036 96.0084C161.691 96.0014 162.295 97.9335 162.305 100.352C162.328 105.681 159.01 115.099 155.495 115.114Z" fill="white"/>
</g>
<defs>
<radialGradient id="paint0_radial_2211_706" cx="0" cy="0" r="1" gradientUnits="userSpaceOnUse" gradientTransform="translate(21.8429 276.298) rotate(-59.802) scale(204.607 204.607)">
<stop stop-color="#6420FF"/>
<stop offset="1" stop-color="#6420FF" stop-opacity="0"/>
</radialGradient>
<radialGradient id="paint1_radial_2211_706" cx="0" cy="0" r="1" gradientUnits="userSpaceOnUse" gradientTransform="translate(19.5408 10.5952) rotate(44.3171) scale(230.732 230.732)">
<stop stop-color="#00C4CC"/>
<stop offset="1" stop-color="#00C4CC" stop-opacity="0"/>
</radialGradient>
<radialGradient id="paint2_radial_2211_706" cx="0" cy="0" r="1" gradientUnits="userSpaceOnUse" gradientTransform="translate(21.8429 215.06) rotate(-55.5818) scale(202.13 92.9623)">
<stop stop-color="#6420FF"/>
<stop offset="1" stop-color="#6420FF" stop-opacity="0"/>
</radialGradient>
<radialGradient id="paint3_radial_2211_706" cx="0" cy="0" r="1" gradientUnits="userSpaceOnUse" gradientTransform="translate(69.6089 215.06) rotate(-55.5818) scale(202.13 92.9623)">
<stop stop-color="#6420FF"/>
<stop offset="1" stop-color="#6420FF" stop-opacity="0"/>
</radialGradient>
<radialGradient id="paint4_radial_2211_706" cx="0" cy="0" r="1" gradientUnits="userSpaceOnUse" gradientTransform="translate(52.9591 2.71024) rotate(56.1334) scale(208.279 348.914)">
<stop stop-color="#00C4CC" stop-opacity="0.725916"/>
<stop offset="0.0001" stop-color="#00C4CC"/>
<stop offset="1" stop-color="#00C4CC" stop-opacity="0"/>
</radialGradient>
<clipPath id="clip0_2211_706">
<rect x="0.65918" width="200" height="200" rx="48.7683" fill="white"/>
</clipPath>
</defs>
</svg>
