<svg width="25" height="24" viewBox="0 0 25 24" fill="none" xmlns="http://www.w3.org/2000/svg">
<path d="M22.0041 20.0642C22.0041 20.1602 21.9561 20.2082 21.9081 20.3042C21.1881 21.3122 17.3001 22.1282 12.5961 22.1282C7.89212 22.1282 3.95612 21.3602 3.28412 20.3042C3.23612 20.2562 3.18812 20.1602 3.18812 20.0642C2.75612 18.8162 3.71612 17.6162 3.71612 17.6162C3.71612 17.6162 5.06012 18.2402 5.63612 18.4802C9.38012 17.5682 15.8121 17.5682 19.6041 18.4802C20.1801 18.1922 21.5241 17.6162 21.5241 17.6162C21.5241 17.6162 22.4361 18.8642 22.0041 20.0642Z" fill="#FAFAFC"/>
<path opacity="0.1" d="M19.508 18.5279C19.172 18.4319 18.836 18.3839 18.452 18.2879C18.692 18.5279 18.932 18.7199 19.124 19.0079C19.364 19.3919 19.508 19.8719 19.46 20.3519C19.412 20.5439 19.364 20.7839 19.268 20.9759C19.172 21.1679 19.076 21.3599 18.98 21.5039C20.516 21.1679 21.572 20.7359 21.908 20.2559C21.956 20.1599 22.004 20.1119 22.004 20.0159C22.436 18.7679 21.476 17.5679 21.476 17.5679C21.476 17.5679 20.132 18.2879 19.508 18.5279Z" fill="#FAFAFC"/>
<path opacity="0.15" d="M5.58839 18.5279C5.92439 18.4319 6.26039 18.3839 6.64439 18.2879C6.40439 18.5279 6.16439 18.7199 5.97239 19.0079C5.73239 19.3919 5.58839 19.8719 5.63639 20.3519C5.68439 20.5439 5.73239 20.7839 5.82839 20.9759C5.92439 21.1679 6.02039 21.3599 6.11639 21.5039C4.58039 21.1679 3.52439 20.7359 3.18839 20.2559C3.14039 20.1599 3.09239 20.1119 3.09239 20.0159C2.66039 18.7679 3.62039 17.5679 3.62039 17.5679C3.62039 17.5679 5.01239 18.2879 5.58839 18.5279Z" fill="#FAFAFC"/>
<path d="M21.5722 17.9521C21.5722 19.1041 17.5402 20.0161 12.5482 20.0161C7.55625 20.0161 3.52423 19.1041 3.52423 17.9521C3.57223 15.2161 21.5722 15.2161 21.5722 17.9521Z" fill="#FAFAFC"/>
<path d="M22.7237 9.3121C22.7237 12.0001 22.1957 14.9761 21.2837 17.712C21.2357 18.816 17.3477 19.68 12.5477 19.68C7.74773 19.68 3.85973 18.816 3.81173 17.712C2.89973 14.9761 2.37173 12.0001 2.37173 9.3121C2.37173 8.5441 2.41973 7.8241 2.46773 7.1041H4.33973C4.72373 9.8881 6.11573 11.9521 7.74773 11.9521C9.66773 11.9521 11.2517 9.0241 11.2517 5.4241V4.9921H13.7957C13.6997 7.7281 14.8037 11.9521 17.2997 11.9521C18.9317 11.9521 20.2757 9.8881 20.7077 7.1041H22.5797C22.6757 7.7761 22.7237 8.5441 22.7237 9.3121Z" fill="#FAFAFC"/>
<path d="M12.5961 4.94403H11.3001V5.37603C11.3001 8.97603 9.71607 11.904 7.79607 11.904C6.16407 11.904 4.82007 9.84003 4.38807 7.05603H2.51607C2.42007 7.77603 2.42007 8.54403 2.42007 9.26403C2.42007 11.952 2.94807 14.928 3.86007 17.664C3.90807 18.768 7.79607 19.632 12.5961 19.632H12.6441V4.94403H12.5961Z" fill="#FAFAFC"/>
<path d="M11.3001 5.75995V6.14395C11.3001 9.74395 9.71607 12.6719 7.79607 12.6719C6.16407 12.6719 4.82007 10.6079 4.38807 7.82395H2.51607C2.46807 8.44795 2.42007 9.07195 2.42007 9.64795V9.26395C2.42007 8.49595 2.46807 7.77595 2.51607 7.05595H4.38807C4.77207 9.83995 6.16407 11.9039 7.79607 11.9039C9.66807 11.9039 11.2041 9.16795 11.3001 5.75995Z" fill="#FAFAFC"/>
<path d="M11.3 5.37603V4.94403H13.844V5.71203H11.3V5.37603Z" fill="#FAFAFC"/>
<path d="M22.7243 9.31195V9.69595C22.7243 9.07195 22.6763 8.44795 22.6283 7.87195H20.7563C20.3723 10.6559 18.9803 12.7199 17.3483 12.7199C14.8044 12.7199 13.7484 8.44795 13.8444 5.75995C14.0844 13.1999 19.7483 14.2559 20.7563 7.10395H22.5803C22.6763 7.77595 22.7243 8.54395 22.7243 9.31195Z" fill="#FAFAFC"/>
<path opacity="0.1" d="M22.5804 7.05615H20.7084C20.3724 9.55215 19.2204 11.4242 17.8764 11.8082L16.9644 19.3442C19.5084 19.0082 21.2364 18.3842 21.2844 17.6642C22.1964 14.9282 22.7244 11.9522 22.7244 9.26415C22.7244 8.54415 22.6764 7.77615 22.5804 7.05615Z" fill="#FAFAFC"/>
<path opacity="0.15" d="M2.51573 7.05615H4.38773C4.72373 9.55215 5.87573 11.4242 7.21973 11.8082L8.13173 19.3442C5.58773 19.0082 3.85973 18.3842 3.81173 17.6642C2.89973 14.9282 2.37173 11.9522 2.37173 9.26415C2.37173 8.54415 2.41973 7.77615 2.51573 7.05615Z" fill="#FAFAFC"/>
<path d="M21.6678 8.8801C22.8342 8.8801 23.7798 7.93453 23.7798 6.7681C23.7798 5.60168 22.8342 4.6561 21.6678 4.6561C20.5014 4.6561 19.5558 5.60168 19.5558 6.7681C19.5558 7.93453 20.5014 8.8801 21.6678 8.8801Z" fill="#FAFAFC"/>
<path opacity="0.2" d="M21.524 8.44829C22.5314 8.44829 23.348 7.63165 23.348 6.62429C23.348 5.61692 22.5314 4.80029 21.524 4.80029C20.5166 4.80029 19.7 5.61692 19.7 6.62429C19.7 7.63165 20.5166 8.44829 21.524 8.44829Z" fill="#FAFAFC"/>
<path opacity="0.2" d="M21.3801 8.0641C22.2283 8.0641 22.9161 7.37641 22.9161 6.5281C22.9161 5.67979 22.2283 4.9921 21.3801 4.9921C20.5317 4.9921 19.8441 5.67979 19.8441 6.5281C19.8441 7.37641 20.5317 8.0641 21.3801 8.0641Z" fill="#FAFAFC"/>
<path opacity="0.2" d="M21.2358 7.43987C21.8454 7.43987 22.3398 6.94559 22.3398 6.33587C22.3398 5.72615 21.8454 5.23187 21.2358 5.23187C20.6261 5.23187 20.1318 5.72615 20.1318 6.33587C20.1318 6.94559 20.6261 7.43987 21.2358 7.43987Z" fill="#FAFAFC"/>
<path d="M3.33206 8.8801C4.49849 8.8801 5.44406 7.93453 5.44406 6.7681C5.44406 5.60168 4.49849 4.6561 3.33206 4.6561C2.16564 4.6561 1.22006 5.60168 1.22006 6.7681C1.22006 7.93453 2.16564 8.8801 3.33206 8.8801Z" fill="#FAFAFC"/>
<path opacity="0.2" d="M3.23578 8.44829C4.24315 8.44829 5.05978 7.63165 5.05978 6.62429C5.05978 5.61692 4.24315 4.80029 3.23578 4.80029C2.22841 4.80029 1.41177 5.61692 1.41177 6.62429C1.41177 7.63165 2.22841 8.44829 3.23578 8.44829Z" fill="#FAFAFC"/>
<path opacity="0.2" d="M3.09182 8.0641C3.94013 8.0641 4.62782 7.37641 4.62782 6.5281C4.62782 5.67979 3.94013 4.9921 3.09182 4.9921C2.24351 4.9921 1.55582 5.67979 1.55582 6.5281C1.55582 7.37641 2.24351 8.0641 3.09182 8.0641Z" fill="#FAFAFC"/>
<path opacity="0.2" d="M2.94809 7.43987C3.55781 7.43987 4.05209 6.94559 4.05209 6.33587C4.05209 5.72615 3.55781 5.23187 2.94809 5.23187C2.33837 5.23187 1.84409 5.72615 1.84409 6.33587C1.84409 6.94559 2.33837 7.43987 2.94809 7.43987Z" fill="#FAFAFC"/>
<path d="M12.5483 7.44004C14.0859 7.44004 15.3323 6.1936 15.3323 4.65604C15.3323 3.11848 14.0859 1.87204 12.5483 1.87204C11.0108 1.87204 9.76431 3.11848 9.76431 4.65604C9.76431 6.1936 11.0108 7.44004 12.5483 7.44004Z" fill="#FAFAFC"/>
<path opacity="0.2" d="M12.4046 6.76809C13.7036 6.76809 14.7566 5.71506 14.7566 4.41609C14.7566 3.1171 13.7036 2.06409 12.4046 2.06409C11.1056 2.06409 10.0526 3.1171 10.0526 4.41609C10.0526 5.71506 11.1056 6.76809 12.4046 6.76809Z" fill="#FAFAFC"/>
<path opacity="0.2" d="M12.2121 6.3362C13.3255 6.3362 14.2281 5.4336 14.2281 4.3202C14.2281 3.20679 13.3255 2.3042 12.2121 2.3042C11.0987 2.3042 10.1961 3.20679 10.1961 4.3202C10.1961 5.4336 11.0987 6.3362 12.2121 6.3362Z" fill="#FAFAFC"/>
<path opacity="0.2" d="M12.0202 5.51983C12.8155 5.51983 13.4602 4.87512 13.4602 4.07983C13.4602 3.28455 12.8155 2.63983 12.0202 2.63983C11.2249 2.63983 10.5802 3.28455 10.5802 4.07983C10.5802 4.87512 11.2249 5.51983 12.0202 5.51983Z" fill="#FAFAFC"/>
<path opacity="0.2" d="M12.2121 21.9361C13.3255 21.9361 14.2281 21.5278 14.2281 21.0241C14.2281 20.5204 13.3255 20.1121 12.2121 20.1121C11.0987 20.1121 10.1961 20.5204 10.1961 21.0241C10.1961 21.5278 11.0987 21.9361 12.2121 21.9361Z" fill="#FAFAFC"/>
<path opacity="0.2" d="M12.2119 21.7919C13.0602 21.7919 13.7479 21.5339 13.7479 21.2159C13.7479 20.8977 13.0602 20.6399 12.2119 20.6399C11.3636 20.6399 10.6759 20.8977 10.6759 21.2159C10.6759 21.5339 11.3636 21.7919 12.2119 21.7919Z" fill="#FAFAFC"/>
</svg>
