<svg width="20" height="20" viewBox="0 0 20 20" fill="none" xmlns="http://www.w3.org/2000/svg">
<path d="M17.2908 10.0001L18.2108 8.41007C18.3214 8.21877 18.3514 7.99139 18.2944 7.77793C18.2374 7.56446 18.0979 7.38238 17.9066 7.27174L16.315 6.35174V4.5184C16.315 4.29739 16.2272 4.08543 16.0709 3.92915C15.9146 3.77287 15.7026 3.68507 15.4816 3.68507H13.6491L12.73 2.09423C12.619 1.90333 12.4372 1.76382 12.2241 1.7059C12.1184 1.67725 12.0081 1.66986 11.8995 1.68416C11.791 1.69847 11.6863 1.73418 11.5916 1.78924L9.99997 2.70923L8.4083 1.7884C8.2169 1.6779 7.98945 1.64795 7.77597 1.70515C7.56249 1.76235 7.38048 1.90201 7.26997 2.0934L6.34997 3.68507H4.51747C4.29645 3.68507 4.08449 3.77287 3.92821 3.92915C3.77193 4.08543 3.68413 4.29739 3.68413 4.5184V6.3509L2.09247 7.2709C1.99749 7.32553 1.91425 7.39839 1.84752 7.48529C1.78079 7.57219 1.73189 7.67141 1.70363 7.77727C1.67536 7.88312 1.66829 7.99352 1.68282 8.10212C1.69735 8.21071 1.7332 8.31537 1.7883 8.41007L2.7083 10.0001L1.7883 11.5901C1.67829 11.7815 1.64844 12.0088 1.70527 12.2221C1.76209 12.4355 1.90097 12.6178 2.09163 12.7292L3.6833 13.6492V15.4817C3.6833 15.7027 3.7711 15.9147 3.92738 16.071C4.08366 16.2273 4.29562 16.3151 4.51663 16.3151H6.34997L7.26997 17.9067C7.34374 18.0329 7.44908 18.1376 7.57562 18.2106C7.70215 18.2837 7.84553 18.3226 7.99163 18.3234C8.13663 18.3234 8.2808 18.2851 8.40913 18.2109L9.99913 17.2909L11.5908 18.2109C11.7822 18.3212 12.0095 18.3512 12.2229 18.2942C12.4363 18.2372 12.6183 18.0978 12.7291 17.9067L13.6483 16.3151H15.4808C15.7018 16.3151 15.9138 16.2273 16.0701 16.071C16.2263 15.9147 16.3141 15.7027 16.3141 15.4817V13.6492L17.9058 12.7292C18.0006 12.6744 18.0837 12.6015 18.1503 12.5146C18.2169 12.4277 18.2657 12.3285 18.294 12.2227C18.3222 12.1169 18.3293 12.0066 18.3149 11.898C18.3005 11.7895 18.2648 11.6848 18.21 11.5901L17.2908 10.0001ZM7.9158 5.82507C8.24743 5.82518 8.56544 5.95703 8.79986 6.1916C9.03428 6.42618 9.16591 6.74427 9.1658 7.0759C9.16569 7.40753 9.03384 7.72554 8.79927 7.95996C8.56469 8.19438 8.2466 8.32601 7.91497 8.3259C7.58334 8.32579 7.26533 8.19395 7.03091 7.95937C6.79649 7.72479 6.66486 7.4067 6.66497 7.07507C6.66508 6.74344 6.79692 6.42543 7.0315 6.19101C7.26608 5.95659 7.58417 5.82496 7.9158 5.82507ZM8.1658 13.8251L6.83247 12.8259L11.8325 6.15924L13.1658 7.1584L8.1658 13.8251ZM12.0825 14.1584C11.9183 14.1583 11.7557 14.1259 11.604 14.0631C11.4523 14.0002 11.3145 13.908 11.1984 13.7919C11.0823 13.6757 10.9903 13.5378 10.9275 13.3861C10.8647 13.2344 10.8324 13.0718 10.8325 12.9076C10.8325 12.7434 10.8649 12.5808 10.9278 12.4291C10.9907 12.2774 11.0829 12.1396 11.199 12.0235C11.3152 11.9074 11.453 11.8154 11.6048 11.7526C11.7565 11.6898 11.9191 11.6575 12.0833 11.6576C12.4149 11.6577 12.7329 11.7895 12.9674 12.0241C13.2018 12.2587 13.3334 12.5768 13.3333 12.9084C13.3332 13.24 13.2013 13.558 12.9668 13.7925C12.7322 14.0269 12.4141 14.1585 12.0825 14.1584Z" fill="#A85325"/>
</svg>
