<svg width="48" height="48" viewBox="0 0 48 48" fill="none" xmlns="http://www.w3.org/2000/svg">
<path fill-rule="evenodd" clip-rule="evenodd" d="M8.94409 16.4245C8.94409 12.293 12.2933 8.94385 16.4247 8.94385H31.5754C35.7068 8.94385 39.056 12.293 39.056 16.4245V31.5751C39.056 35.7066 35.7068 39.0558 31.5754 39.0558H16.4247C12.2933 39.0558 8.94409 35.7066 8.94409 31.5751V16.4245ZM16.4247 11.2796C13.5833 11.2796 11.2798 13.583 11.2798 16.4245V31.5751C11.2798 34.4166 13.5833 36.72 16.4247 36.72H31.5754C34.4168 36.72 36.7203 34.4166 36.7203 31.5751V16.4245C36.7203 13.583 34.4168 11.2796 31.5754 11.2796H16.4247Z" fill="black"/>
<path fill-rule="evenodd" clip-rule="evenodd" d="M21.0435 3.16786C21.0435 2.52287 21.5664 2 22.2114 2H25.7886C26.4336 2 26.9565 2.52287 26.9565 3.16786C26.9565 3.81285 26.4336 4.33572 25.7886 4.33572H22.2114C21.5664 4.33572 21.0435 3.81285 21.0435 3.16786ZM8.04533 4.54301C8.43834 5.05443 8.34235 5.78763 7.83092 6.18064C7.2117 6.65649 6.65649 7.21169 6.18064 7.83092C5.78763 8.34235 5.05443 8.43834 4.54301 8.04533C4.03158 7.65232 3.93559 6.91913 4.3286 6.4077C4.92815 5.62751 5.62751 4.92814 6.4077 4.3286C6.91913 3.93558 7.65232 4.03158 8.04533 4.54301ZM39.9547 4.54301C40.3477 4.03158 41.0809 3.93559 41.5923 4.3286C42.3725 4.92815 43.0719 5.62751 43.6714 6.4077C44.0644 6.91913 43.9684 7.65232 43.457 8.04533C42.9456 8.43834 42.2124 8.34235 41.8194 7.83092C41.3435 7.2117 40.7883 6.65649 40.1691 6.18064C39.6577 5.78763 39.5617 5.05443 39.9547 4.54301ZM44.8321 21.0435C45.4771 21.0435 46 21.5664 46 22.2114V25.7886C46 26.4336 45.4771 26.9565 44.8321 26.9565C44.1871 26.9565 43.6643 26.4336 43.6643 25.7886V22.2114C43.6643 21.5664 44.1871 21.0435 44.8321 21.0435ZM3.16786 21.0435C3.81285 21.0435 4.33572 21.5664 4.33572 22.2114V25.7886C4.33572 26.4336 3.81285 26.9565 3.16786 26.9565C2.52287 26.9565 2 26.4336 2 25.7886V22.2114C2 21.5664 2.52287 21.0435 3.16786 21.0435ZM4.54301 39.9547C5.05443 39.5617 5.78763 39.6577 6.18064 40.1691C6.65649 40.7883 7.21169 41.3435 7.83092 41.8194C8.34235 42.2124 8.43834 42.9456 8.04533 43.457C7.65232 43.9684 6.91913 44.0644 6.4077 43.6714C5.62751 43.0719 4.92814 42.3725 4.3286 41.5923C3.93558 41.0809 4.03158 40.3477 4.54301 39.9547ZM43.457 39.9547C43.9684 40.3477 44.0644 41.0809 43.6714 41.5923C43.0719 42.3725 42.3725 43.0719 41.5923 43.6714C41.0809 44.0644 40.3477 43.9684 39.9547 43.457C39.5617 42.9456 39.6577 42.2124 40.1691 41.8194C40.7883 41.3435 41.3435 40.7883 41.8194 40.1691C42.2124 39.6577 42.9456 39.5617 43.457 39.9547ZM21.0435 44.8321C21.0435 44.1871 21.5664 43.6643 22.2114 43.6643H25.7886C26.4336 43.6643 26.9565 44.1871 26.9565 44.8321C26.9565 45.4771 26.4336 46 25.7886 46H22.2114C21.5664 46 21.0435 45.4771 21.0435 44.8321Z" fill="black"/>
<path fill-rule="evenodd" clip-rule="evenodd" d="M16.8769 21.9114C17.3096 21.4787 18.0029 21.4534 18.466 21.8533L34.5482 35.7414C35.0363 36.163 35.0903 36.9004 34.6688 37.3886C34.2472 37.8768 33.5097 37.9308 33.0216 37.5092L17.761 24.3306L11.2534 30.8381C10.7973 31.2942 10.0579 31.2942 9.60182 30.8381C9.14575 30.382 9.14575 29.6426 9.60183 29.1865L16.8769 21.9114Z" fill="black"/>
<path fill-rule="evenodd" clip-rule="evenodd" d="M27.0661 21.8755C27.5055 21.4736 28.1768 21.4666 28.6244 21.8591L38.3428 30.3814C38.8277 30.8066 38.8761 31.5445 38.4508 32.0294C38.0256 32.5144 37.2877 32.5628 36.8028 32.1375L27.8709 24.3049L24.1573 27.7022C23.6814 28.1375 22.9427 28.1047 22.5074 27.6288C22.072 27.1529 22.1049 26.4142 22.5808 25.9788L27.0661 21.8755Z" fill="black"/>
<path fill-rule="evenodd" clip-rule="evenodd" d="M22.4219 19.0446C21.498 19.0446 20.7491 18.2957 20.7491 17.3718C20.7491 16.4479 21.498 15.6989 22.4219 15.6989C23.3458 15.6989 24.0948 16.4479 24.0948 17.3718C24.0948 18.2957 23.3458 19.0446 22.4219 19.0446ZM18.4133 17.3718C18.4133 19.5857 20.208 21.3804 22.4219 21.3804C24.6358 21.3804 26.4305 19.5857 26.4305 17.3718C26.4305 15.1579 24.6358 13.3632 22.4219 13.3632C20.208 13.3632 18.4133 15.1579 18.4133 17.3718Z" fill="black"/>
<path d="M44.8321 30.3154C45.4771 30.3154 46 30.8383 46 31.4833V33.2719C46 33.7697 45.9677 34.2605 45.9048 34.7422C45.8214 35.3818 45.2353 35.8326 44.5957 35.7492C43.9561 35.6657 43.5053 35.0796 43.5887 34.4401C43.6385 34.0583 43.6643 33.6684 43.6643 33.2719V31.4833C43.6643 30.8383 44.1871 30.3154 44.8321 30.3154Z" fill="black"/>
<path d="M3.16786 30.3154C3.81285 30.3154 4.33572 30.8383 4.33572 31.4833V33.2719C4.33572 33.6684 4.36148 34.0583 4.41129 34.4401C4.49471 35.0796 4.04387 35.6657 3.40429 35.7492C2.76472 35.8326 2.17861 35.3818 2.09518 34.7422C2.03235 34.2605 2 33.7697 2 33.2719V31.4833C2 30.8383 2.52287 30.3154 3.16786 30.3154Z" fill="black"/>
<path d="M3.40429 11.5251C4.04387 11.6085 4.49471 12.1946 4.41129 12.8342C4.36148 13.216 4.33572 13.6059 4.33572 14.0023V15.791C4.33572 16.436 3.81285 16.9588 3.16786 16.9588C2.52287 16.9588 2 16.436 2 15.791V14.0023C2 13.5046 2.03235 13.0138 2.09518 12.5321C2.17861 11.8925 2.76472 11.4417 3.40429 11.5251Z" fill="black"/>
<path d="M44.5957 11.5251C45.2353 11.4417 45.8214 11.8925 45.9048 12.5321C45.9677 13.0138 46 13.5046 46 14.0023V15.791C46 16.436 45.4771 16.9588 44.8321 16.9588C44.1871 16.9588 43.6643 16.436 43.6643 15.791V14.0023C43.6643 13.6059 43.6385 13.216 43.5887 12.8342C43.5053 12.1946 43.9561 11.6085 44.5957 11.5251Z" fill="black"/>
<path d="M36.2306 44.5955C36.314 45.2351 35.8632 45.8212 35.2236 45.9047C34.7419 45.9675 34.2511 45.9998 33.7534 45.9998H31.9647C31.3197 45.9998 30.7969 45.477 30.7969 44.832C30.7969 44.187 31.3197 43.6641 31.9647 43.6641H33.7534C34.1498 43.6641 34.5397 43.6384 34.9215 43.5886C35.5611 43.5051 36.1472 43.956 36.2306 44.5955Z" fill="black"/>
<path d="M30.7969 3.16786C30.7969 2.52287 31.3197 2 31.9647 2H33.7534C34.2511 2 34.7419 2.03235 35.2236 2.09518C35.8632 2.17861 36.314 2.76472 36.2306 3.40429C36.1472 4.04387 35.5611 4.49471 34.9215 4.41129C34.5397 4.36148 34.1498 4.33572 33.7534 4.33572H31.9647C31.3197 4.33572 30.7969 3.81285 30.7969 3.16786Z" fill="black"/>
<path d="M11.6135 44.5955C11.6969 43.956 12.283 43.5051 12.9226 43.5886C13.3044 43.6384 13.6942 43.6641 14.0907 43.6641H15.8793C16.5243 43.6641 17.0472 44.187 17.0472 44.832C17.0472 45.477 16.5243 45.9998 15.8793 45.9998H14.0907C13.593 45.9998 13.1022 45.9675 12.6205 45.9047C11.9809 45.8212 11.53 45.2351 11.6135 44.5955Z" fill="black"/>
<path d="M14.0907 4.33572C13.6942 4.33572 13.3044 4.36148 12.9226 4.41129C12.283 4.49471 11.6969 4.04387 11.6135 3.40429C11.53 2.76472 11.9809 2.17861 12.6205 2.09518C13.1022 2.03235 13.593 2 14.0907 2H15.8793C16.5243 2 17.0472 2.52287 17.0472 3.16786C17.0472 3.81285 16.5243 4.33572 15.8793 4.33572H14.0907Z" fill="black"/>
</svg>
